<svg width="32" height="32" viewBox="0 0 32 32" fill="none" xmlns="http://www.w3.org/2000/svg">
<path d="M15.9998 30.3334C8.09317 30.3334 1.6665 23.9067 1.6665 16.0001C1.6665 8.09342 8.09317 1.66675 15.9998 1.66675C23.9065 1.66675 30.3332 8.09342 30.3332 16.0001C30.3332 23.9067 23.9065 30.3334 15.9998 30.3334ZM15.9998 3.66675C9.19984 3.66675 3.6665 9.20008 3.6665 16.0001C3.6665 22.8001 9.19984 28.3334 15.9998 28.3334C22.7998 28.3334 28.3332 22.8001 28.3332 16.0001C28.3332 9.20008 22.7998 3.66675 15.9998 3.66675Z" fill="#02D4B1"/>
<path d="M21.3332 17H10.6665C10.1198 17 9.6665 16.5467 9.6665 16C9.6665 15.4533 10.1198 15 10.6665 15H21.3332C21.8798 15 22.3332 15.4533 22.3332 16C22.3332 16.5467 21.8798 17 21.3332 17Z" fill="currentColor"/>
<path d="M16 22.3334C15.4533 22.3334 15 21.8801 15 21.3334V10.6667C15 10.1201 15.4533 9.66675 16 9.66675C16.5467 9.66675 17 10.1201 17 10.6667V21.3334C17 21.8801 16.5467 22.3334 16 22.3334Z" fill="currentColor"/>
</svg>
