<svg width="100" height="24" viewBox="0 0 100 24" fill="none" xmlns="http://www.w3.org/2000/svg">
<path d="M39.6474 23.6371V4.88023H37.5262L35.823 0.421852H47.9411V4.88023H44.2905V23.6371H39.6474Z" fill="white"/>
<path d="M29.5465 23.9771C27.691 23.9771 26.2709 23.4106 25.286 22.2778C24.3099 21.136 23.8218 19.4903 23.8218 17.3405V6.15482C23.8218 4.1389 24.3055 2.60911 25.2728 1.56547C26.2489 0.521822 27.6735 0 29.5465 0C31.4195 0 32.8397 0.521822 33.807 1.56547C34.7831 2.60911 35.2712 4.1389 35.2712 6.15482V17.3405C35.2712 19.4903 34.7787 21.136 33.7938 22.2778C32.8177 23.4106 31.402 23.9771 29.5465 23.9771ZM29.5861 19.6419C30.2896 19.6419 30.6413 18.9506 30.6413 17.568V6.07454C30.6413 4.91494 30.2984 4.33514 29.6125 4.33514C28.8386 4.33514 28.4517 4.92832 28.4517 6.11468V17.5948C28.4517 18.3262 28.5396 18.8525 28.7155 19.1736C28.8914 19.4858 29.1816 19.6419 29.5861 19.6419Z" fill="white"/>
<path d="M16.7304 23.9771C14.8749 23.9771 13.4548 23.4106 12.4699 22.2778C11.4938 21.136 11.0057 19.4903 11.0057 17.3405V6.15482C11.0057 4.1389 11.4894 2.60911 12.4567 1.56547C13.4328 0.521822 14.8574 0 16.7304 0C18.6034 0 20.0236 0.521822 20.9909 1.56547C21.967 2.60911 22.4551 4.1389 22.4551 6.15482V17.3405C22.4551 19.4903 21.9626 21.136 20.9777 22.2778C20.0016 23.4106 18.5859 23.9771 16.7304 23.9771ZM16.77 19.6419C17.4735 19.6419 17.8252 18.9506 17.8252 17.568V6.07454C17.8252 4.91494 17.4823 4.33514 16.7964 4.33514C16.0225 4.33514 15.6356 4.92832 15.6356 6.11468V17.5948C15.6356 18.3262 15.7235 18.8525 15.8994 19.1736C16.0753 19.4858 16.3655 19.6419 16.77 19.6419Z" fill="white"/>
<path d="M0 23.6371V0.421852H4.64304V19.6799H8.94249L11.0385 23.8113L0 23.6371Z" fill="white"/>
<path d="M87.608 23.8287V0.385601H92.2433V9.77618L94.4278 0.385601H99.1431L96.519 11.1215L99.6892 23.8287H94.8274L92.27 12.4801V23.8287H87.608Z" fill="currentColor"/>
<path d="M80.2602 23.8286C78.3865 23.8286 76.9524 23.2657 75.9578 22.1399C74.9721 21.0052 74.4793 19.3696 74.4793 17.2332V6.11673C74.4793 4.11328 74.9677 2.59296 75.9445 1.55578C76.9302 0.518592 78.3687 0 80.2602 0C82.1516 0 83.5857 0.518592 84.5625 1.55578C85.5482 2.59296 86.041 4.11328 86.041 6.11673V17.2332C86.041 19.3696 85.5438 21.0052 84.5492 22.1399C83.5635 23.2657 82.1339 23.8286 80.2602 23.8286ZM80.3001 19.5203C81.0105 19.5203 81.3657 18.8333 81.3657 17.4593V6.03694C81.3657 4.88452 81.0194 4.3083 80.3268 4.3083C79.5453 4.3083 79.1546 4.89781 79.1546 6.07684V17.4859C79.1546 18.2128 79.2434 18.7358 79.421 19.0549C79.5986 19.3652 79.8917 19.5203 80.3001 19.5203Z" fill="currentColor"/>
<path d="M67.3173 23.8286C65.4436 23.8286 64.0095 23.2657 63.015 22.1399C62.0293 21.0052 61.5364 19.3696 61.5364 17.2332V6.11673C61.5364 4.11328 62.0248 2.59296 63.0016 1.55578C63.9873 0.518592 65.4259 0 67.3173 0C69.2087 0 70.6429 0.518592 71.6197 1.55578C72.6053 2.59296 73.0982 4.11328 73.0982 6.11673V17.2332C73.0982 19.3696 72.6009 21.0052 71.6063 22.1399C70.6207 23.2657 69.191 23.8286 67.3173 23.8286ZM67.3573 19.5203C68.0677 19.5203 68.4229 18.8333 68.4229 17.4593V6.03694C68.4229 4.88452 68.0765 4.3083 67.3839 4.3083C66.6025 4.3083 66.2117 4.89781 66.2117 6.07684V17.4859C66.2117 18.2128 66.3005 18.7358 66.4781 19.0549C66.6557 19.3652 66.9488 19.5203 67.3573 19.5203Z" fill="currentColor"/>
<path d="M48.9937 23.8287V0.385601H55.3473C57.0522 0.385601 58.291 0.802961 59.0635 1.63768C59.845 2.46352 60.2357 3.83103 60.2357 5.74023V6.76587C60.2357 7.86698 60.0359 8.75942 59.6363 9.44318C59.2456 10.1269 58.6462 10.5754 57.8381 10.7885C58.8948 11.0549 59.6008 11.6809 59.956 12.6666C60.3201 13.6434 60.5021 14.8378 60.5021 16.2497C60.5021 17.7682 60.36 19.0957 60.0759 20.2324C59.7917 21.369 59.2767 22.2526 58.5308 22.883C57.7848 23.5135 56.7237 23.8287 55.3473 23.8287H48.9937ZM53.5757 9.21674H54.5348C54.9699 9.21674 55.2496 9.04802 55.3739 8.71058C55.4982 8.37314 55.5604 7.9691 55.5604 7.49847V5.14083C55.5604 4.38603 55.2274 4.00863 54.5614 4.00863H53.5757V9.21674ZM54.0419 19.6996C55.2585 19.6996 55.8668 19.1224 55.8668 17.968V15.0376C55.8668 14.3716 55.7646 13.8477 55.5604 13.4658C55.365 13.0751 54.9921 12.8797 54.4415 12.8797H53.5757V19.6729C53.7711 19.6907 53.9265 19.6996 54.0419 19.6996Z" fill="currentColor"/>
<defs>
<linearGradient id="paint0_linear_1_218" x1="89.9642" y1="1.30136" x2="109.224" y2="10.4781" gradientUnits="userSpaceOnUse">
<stop stop-color="#24E191"/>
<stop offset="0.932292" stop-color="#65E3FF"/>
<stop offset="1" stop-color="#24E191" stop-opacity="0"/>
</linearGradient>
<linearGradient id="paint1_linear_1_218" x1="76.7342" y1="0.930821" x2="95.5612" y2="9.37684" gradientUnits="userSpaceOnUse">
<stop stop-color="#24E191"/>
<stop offset="0.932292" stop-color="#65E3FF"/>
<stop offset="1" stop-color="#24E191" stop-opacity="0"/>
</linearGradient>
<linearGradient id="paint2_linear_1_218" x1="63.7914" y1="0.930821" x2="82.6184" y2="9.37684" gradientUnits="userSpaceOnUse">
<stop stop-color="#24E191"/>
<stop offset="0.932292" stop-color="#65E3FF"/>
<stop offset="1" stop-color="#24E191" stop-opacity="0"/>
</linearGradient>
<linearGradient id="paint3_linear_1_218" x1="51.2382" y1="1.30136" x2="69.9044" y2="9.77374" gradientUnits="userSpaceOnUse">
<stop stop-color="#24E191"/>
<stop offset="0.932292" stop-color="#65E3FF"/>
<stop offset="1" stop-color="#24E191" stop-opacity="0"/>
</linearGradient>
</defs>
</svg>
