<svg width="24" height="24" viewBox="0 0 24 24" fill="none" xmlns="http://www.w3.org/2000/svg">
<path d="M11.9997 18.46C11.8017 18.4557 11.6125 18.3772 11.4697 18.24L5.76967 12.53C5.64458 12.3936 5.5752 12.2152 5.5752 12.03C5.5752 11.8449 5.64458 11.6665 5.76967 11.53L14.1597 3.00003C14.3002 2.85934 14.4908 2.7802 14.6897 2.78003H20.4397C20.6369 2.78001 20.8261 2.85766 20.9665 2.99615C21.1069 3.13465 21.187 3.32285 21.1897 3.52003L21.2497 9.20003C21.25 9.40191 21.171 9.59583 21.0297 9.74003L12.5197 18.25C12.38 18.3846 12.1936 18.4599 11.9997 18.46ZM7.34967 12L11.9997 16.64L19.7597 8.89003L19.6997 4.27003L14.9997 4.25003L7.34967 12Z" fill="#7B8395"/>
<path d="M14.7901 21.25C14.6916 21.2505 14.5939 21.2313 14.5029 21.1935C14.4119 21.1557 14.3293 21.1002 14.2601 21.03L3.00009 9.74005C2.9087 9.59909 2.86728 9.43153 2.88247 9.26423C2.89765 9.09692 2.96857 8.93956 3.08385 8.81737C3.19913 8.69517 3.3521 8.61522 3.51823 8.59032C3.68437 8.56542 3.85405 8.59702 4.00009 8.68005L15.3201 20C15.4605 20.1407 15.5394 20.3313 15.5394 20.53C15.5394 20.7288 15.4605 20.9194 15.3201 21.06C15.2487 21.1252 15.1651 21.1756 15.0741 21.2082C14.9832 21.2408 14.8866 21.255 14.7901 21.25Z" fill="#7B8395"/>
<path d="M6.99986 21.1901C6.89527 21.2008 6.78958 21.1895 6.68966 21.1568C6.58974 21.124 6.49782 21.0706 6.41986 21.0001L2.99986 17.5501C2.9287 17.4775 2.87262 17.3915 2.83486 17.2971C2.7971 17.2027 2.77841 17.1017 2.77986 17.0001C2.77986 16.5901 2.77986 16.5801 6.88986 12.5801C7.03308 12.4408 7.22574 12.3642 7.42547 12.367C7.6252 12.3698 7.81563 12.4519 7.95486 12.5951C8.0941 12.7383 8.17075 12.931 8.16793 13.1307C8.16512 13.3304 8.08308 13.5208 7.93986 13.6601C6.65986 14.9101 5.25986 16.2901 4.56986 17.0001L6.99986 19.3801L10.3099 16.0001C10.3788 15.9293 10.4612 15.8731 10.5523 15.8347C10.6433 15.7963 10.7411 15.7765 10.8399 15.7765C10.9387 15.7765 11.0365 15.7963 11.1275 15.8347C11.2185 15.8731 11.3009 15.9293 11.3699 16.0001C11.5103 16.1407 11.5892 16.3313 11.5892 16.5301C11.5892 16.7288 11.5103 16.9195 11.3699 17.0601L7.47986 21.0001C7.34566 21.1154 7.17663 21.1823 6.99986 21.1901Z" fill="#7B8395"/>
<path d="M11.9998 12.75C11.9013 12.7505 11.8036 12.7313 11.7126 12.6935C11.6216 12.6557 11.5391 12.6001 11.4698 12.53C11.3294 12.3894 11.2505 12.1988 11.2505 12C11.2505 11.8013 11.3294 11.6107 11.4698 11.47L15.4698 7.47003C15.5385 7.39634 15.6213 7.33724 15.7133 7.29625C15.8053 7.25526 15.9046 7.23322 16.0053 7.23144C16.106 7.22966 16.206 7.24819 16.2994 7.28591C16.3928 7.32363 16.4776 7.37977 16.5489 7.45099C16.6201 7.52221 16.6762 7.60705 16.714 7.70043C16.7517 7.79382 16.7702 7.89385 16.7684 7.99455C16.7666 8.09526 16.7446 8.19457 16.7036 8.28657C16.6626 8.37857 16.6035 8.46137 16.5298 8.53003L12.5298 12.53C12.4606 12.6001 12.378 12.6557 12.287 12.6935C12.196 12.7313 12.0984 12.7505 11.9998 12.75Z" fill="#7B8395"/>
</svg>
