<svg width="12" height="10" viewBox="0 0 12 10" fill="none" xmlns="http://www.w3.org/2000/svg">
<path fill-rule="evenodd" clip-rule="evenodd" d="M6.33258 0.270693C6.59388 -0.0579619 7.0487 -0.0921196 7.34843 0.1944L11.7531 4.40492C11.91 4.55485 12 4.77184 12 5C12 5.22815 11.91 5.44515 11.7531 5.59508L7.34843 9.8056C7.0487 10.0921 6.59388 10.058 6.33258 9.72931C6.07127 9.40065 6.10242 8.90195 6.40216 8.61543L9.35845 5.78947L0.72 5.78947C0.322355 5.78947 3.98996e-07 5.43601 4.37114e-07 5C4.75231e-07 4.56399 0.322355 4.21053 0.72 4.21053L9.35845 4.21053L6.40216 1.38456C6.10242 1.09805 6.07127 0.599348 6.33258 0.270693Z" fill="white"/>
</svg>
