<svg width="48" height="42" viewBox="0 0 48 42" fill="none" xmlns="http://www.w3.org/2000/svg">
<g clip-path="url(#clip0_11_39)">
<path fill-rule="evenodd" clip-rule="evenodd" d="M41.134 19.3684C40.7795 19.4956 40.3924 19.8119 40.0214 20.2773C39.6382 20.7581 39.606 20.8007 39.1529 21.425C38.9939 21.6439 38.8475 21.8368 38.8275 21.8536C38.8075 21.8705 38.6952 22.022 38.578 22.1904C38.4608 22.3588 38.1258 22.8152 37.8336 23.2045C37.5415 23.5938 37.1404 24.1311 36.9424 24.3986C36.7442 24.666 36.4607 25.0476 36.3123 25.2468C35.7679 25.977 35.7955 26.0322 37.6126 27.8394C39.1798 29.3978 39.9094 29.5611 40.5048 29.3999C41.2489 28.9008 43.807 25.2877 44.4178 24.1499C44.4178 24.1202 43.5963 23.5169 43.366 23.2847C43.1357 23.0526 42.5983 22.4909 42.172 22.0367C41.7456 21.5823 41.2645 21.0729 41.1028 20.9045C40.5836 20.3638 40.7151 20.0051 41.4314 20.0084C42.0373 20.0114 42.2638 20.1897 43.5055 21.642C43.8842 22.0851 44.4881 22.7325 44.7654 22.9929C45 23.2132 45.5217 23.1768 45.6522 22.9207C46.0435 22.2805 46.1739 22.0367 46.4694 21.425C46.9996 20.3273 47.7322 20.1344 47.2174 21.3841C47.1896 21.4515 46.984 21.8628 46.8261 22.2669C46.5322 23.0198 46.4469 23.0419 46.3335 23.2847C46.2409 23.4828 45.7836 24.1051 45.4905 24.1499C45.1304 24.2508 44.9492 24.3388 44.4782 24.9695C43.8005 25.8772 41.526 29.1416 41.347 29.2661C41.2651 29.5257 41.4373 29.51 42.0004 29.5036C42.4887 29.4979 42.6892 29.3868 42.9953 28.9525C43.1242 28.7697 43.2642 28.5788 43.3064 28.5283C43.3487 28.4777 43.6322 28.0782 43.9365 27.6403C44.2407 27.2025 44.5264 26.8078 44.5714 26.7633C44.6163 26.7189 44.6531 26.6589 44.6531 26.63C44.6531 26.601 44.6892 26.541 44.7333 26.4966C44.8031 26.426 45.2815 25.7548 46.3335 24.2508C46.4901 24.0269 46.6413 23.8406 46.6956 23.689C46.9998 22.8391 48.0056 20.6105 47.8696 20.3598C47.7246 19.789 46.7522 19.7225 46.5086 20.2003C46.3842 20.4441 46.0798 21.1151 46.0798 21.1453C46.0798 21.1641 45.9874 21.3793 45.8743 21.6237C45.7613 21.868 45.6324 22.1575 45.5877 22.2669C45.5431 22.3764 45.466 22.466 45.4164 22.466C45.2753 22.466 44.3594 21.5288 43.561 20.5677C43.3194 20.2768 42.8491 19.7735 42.7077 19.6545C42.6442 19.6011 42.5605 19.5297 42.5216 19.4961C42.2865 19.2921 41.5381 19.2233 41.134 19.3684Z" fill="currentColor"/>
<path fill-rule="evenodd" clip-rule="evenodd" d="M8.75798 6.34734C8.57995 6.4591 8.63857 7.33063 8.86002 7.86139C8.88809 7.92874 8.97323 8.19052 9.04906 8.44312C9.19188 8.91815 9.58175 9.97798 9.76334 10.3849C10.5972 12.2529 11.269 13.4554 12.2018 14.7494C12.8067 15.5887 13.6351 16.5099 14.2962 17.0782C14.7678 17.4837 15.7984 18.1795 15.9276 18.1795C15.9543 18.1795 16.0695 18.2256 16.1836 18.2818C16.529 18.4519 16.8548 18.5035 17.7451 18.529L18.5957 18.5534L18.7759 18.9023C19.2633 19.8462 19.5547 20.2356 20.3932 21.064C21.1881 21.8492 23.1208 23.0783 23.5606 23.0783C23.5969 23.0783 23.6819 23.1059 23.7497 23.1396C23.8174 23.1733 23.9285 23.2284 23.9962 23.262C24.064 23.2957 24.1739 23.3233 24.2406 23.3233C24.3073 23.3233 24.3791 23.3508 24.4002 23.3845C24.4213 23.4182 24.5224 23.4458 24.6251 23.4458C24.7276 23.4458 24.8586 23.4705 24.916 23.5007C25.1822 23.6411 26.6604 23.8288 27.5327 23.8332C28.7602 23.8393 30.0631 23.6218 30.9909 23.2559C31.5055 23.0529 31.476 23.0667 32.061 22.7513C32.8746 22.3124 34.17 21.0508 34.17 20.6972C34.17 20.6597 34.1979 20.6289 34.232 20.6289C34.2661 20.6289 34.2941 20.5884 34.2941 20.5389C34.2941 20.4895 34.3499 20.3508 34.4181 20.2309C34.4863 20.111 34.5422 19.972 34.5422 19.922C34.5422 19.8721 34.5676 19.7834 34.5988 19.7249C34.7757 19.3921 34.8015 18.903 34.7644 16.5874C34.7097 13.164 34.6793 12.8759 34.4015 13.1501C34.3629 13.1882 34.2717 13.2195 34.199 13.2195C34.1261 13.2195 34.0472 13.2388 34.0233 13.2622C33.9611 13.3236 33.2837 13.5073 32.2781 13.7355C31.2609 13.9665 31.2645 13.9658 30.169 14.1334C27.7103 14.5097 24.8456 14.6513 22.6944 14.5028C21.6065 14.4278 20.6484 14.3402 20.4923 14.3015C20.424 14.2847 20.2051 14.236 20.0057 14.1933C19.7113 14.1302 19.6321 14.0866 19.5835 13.9607C19.466 13.6556 19.0085 12.7597 18.96 12.7398C18.9328 12.7285 18.9105 12.6909 18.9105 12.6561C18.9105 12.079 16.3629 9.79581 14.4707 8.67688C13.75 8.25069 12.0129 7.4087 11.1877 7.08538C11.0171 7.01864 10.7799 6.92188 10.6605 6.8706C10.541 6.81932 10.3805 6.75257 10.3038 6.72226C10.227 6.6921 10.0944 6.63974 10.0091 6.60606C9.92385 6.57238 9.79125 6.52033 9.71449 6.49033C9.28726 6.32346 8.89042 6.26422 8.75798 6.34734ZM10.5054 7.95064C13.2665 9.0294 14.6136 9.85978 15.9276 11.3964C16.8261 12.447 16.7067 13.6715 16.0759 12.9318C13.5652 9.98782 12.5457 10.1704 10.6294 8.79874C10.2109 8.49915 10.0402 8.29248 10.0402 8.08551C10.0402 7.82771 10.1264 7.80275 10.5054 7.95064ZM18.9549 22.6243C18.7916 22.7082 18.6734 22.8016 18.6925 22.8319C18.7381 22.9047 19.0938 23.0783 19.1977 23.0783C19.3256 23.0783 20.3287 23.6126 20.6106 23.8311C21.0631 24.1818 21.1514 24.2668 21.4652 24.6551C21.7712 25.0337 21.778 25.0379 22.0948 25.0423C22.271 25.0448 22.5618 25.0674 22.7409 25.0925C22.9246 25.1184 23.0665 25.1146 23.0665 25.0838C23.0665 24.8526 21.8523 23.5638 21.2365 23.1413C20.2251 22.4473 19.5824 22.3017 18.9549 22.6243ZM17.7629 23.766C16.6041 24.5927 16.3769 24.7974 15.4926 25.8111C14.3674 27.1009 13.6875 29.0404 14.094 29.8009C14.5857 30.721 16.2204 31.0066 18.4143 30.5555C19.5355 30.3249 19.4872 30.3238 19.996 30.5919C20.0643 30.6279 20.1899 30.6845 20.2752 30.718C20.3605 30.7514 20.5083 30.8097 20.6038 30.8476C20.9296 30.9769 22.3177 30.88 22.4835 30.7165C22.5084 30.6917 22.5705 30.6715 22.6213 30.6715C22.867 30.6715 23.3147 30.1545 23.3147 29.871C23.3147 29.642 23.2422 29.5693 23.0134 29.569C22.4106 29.5682 22.2791 29.0825 22.8622 29.0107C24.0013 28.8704 24.236 28.3348 23.3145 27.9776C22.8575 27.8005 22.6835 27.6342 22.7069 27.3974L22.7254 27.2117L23.4175 27.2322C24.2192 27.256 24.3692 27.208 24.3692 26.9282C24.3692 26.5378 23.8641 26.1606 23.2216 26.0709C23.051 26.0472 22.7904 26.0077 22.6423 25.9832C22.3085 25.9281 21.5882 26.0447 21.1861 26.2191C20.866 26.3578 20.5225 26.6967 20.1967 27.1956C19.9686 27.5448 19.869 27.5695 18.4836 27.618C17.7802 27.6427 16.9186 27.6826 16.5689 27.7068L15.933 27.7507V27.5972C15.933 27.0854 17.1093 26.6779 18.8381 26.5906L19.5412 26.5553L19.7298 26.1487C19.8541 25.8806 20.0267 25.6416 20.2364 25.4474L20.5543 25.1527L20.2015 24.8246C19.8228 24.4727 19.2625 24.1262 18.5763 23.8201C18.0728 23.5955 18.0081 23.5912 17.7629 23.766ZM31.2136 26.1707C31.3007 27.0117 31.4443 27.8326 31.4726 28.6814C31.5256 30.2772 31.6061 30.5045 32.2184 30.7886C33.6265 31.4418 35.7281 30.5096 36.9744 29.9071C38.0933 29.3661 38.1618 29.4133 37.2771 28.5358L36.5217 27.7866C36.0078 27.9163 35.4958 28.014 34.9727 28.1027C33.4836 28.3541 32.6924 27.9251 31.4841 26.2108C31.3498 26.0204 31.2254 25.8508 31.2079 25.8339C31.1902 25.8171 31.1928 25.9686 31.2136 26.1707ZM30 34.189C29.3964 34.8106 28.7567 35.3819 28.0435 35.8537L27.3913 36.2378L27.6618 36.4913C28.1465 36.7372 28.4173 37.1139 28.8045 38.081C29.1669 38.9862 29.2708 39.2201 29.7899 40.298C29.9473 40.6248 30.076 40.9064 30.076 40.9238C30.076 41.0513 30.428 41.671 30.5842 41.8185C30.9776 42.1895 31.7669 41.9855 32.9067 41.218C33.8104 40.6095 35.3797 38.9611 35.6747 38.3106C35.7167 38.218 35.7688 38.1422 35.7907 38.1422C35.8126 38.1422 35.8465 38.094 35.8664 38.035C35.8862 37.9761 35.9448 37.8177 35.9968 37.6829C36.2261 37.0871 35.9293 36.7082 35.3214 36.8209C35.1129 36.8595 34.3047 37.239 34.236 37.3305C34.2168 37.3561 34.0335 37.5009 33.8288 37.6523C33.6241 37.8037 33.4427 37.9414 33.4256 37.9583C33.4086 37.9753 33.255 38.0984 33.0845 38.2319C32.9139 38.3656 32.7603 38.4899 32.7433 38.5084C32.4781 38.7951 31.9008 39.1503 31.8705 39.0454C31.868 39.037 31.8415 38.8234 31.8114 38.5709C31.6806 37.4689 31.4213 36.5392 31.0564 35.8633L30.8562 35.4927L31.102 35.2845C31.237 35.17 31.4244 35.0301 31.5182 34.9734C31.755 34.8303 31.7403 34.7885 31.3011 34.3588C30.6004 33.6733 30.5267 33.3491 30 34.189ZM16.4853 36.1885C16.2835 36.3621 15.6113 36.7466 15.1572 36.9481C14.821 37.0974 14.3663 37.3011 13.9481 37.4904C13.2519 37.8051 13.187 38.5782 13.7711 39.5955C13.8344 39.7055 13.945 39.8989 14.0169 40.0252C14.7073 41.2366 16.0033 42 17.3692 42C18.8438 42 19.0419 41.3313 17.7606 40.6787C16.9524 40.2671 16.7191 40.0077 16.4924 39.2686C16.3665 38.858 16.7844 38.5332 17.0837 38.8089C17.3441 39.0488 19.2912 39.0477 19.5587 38.8075C19.5911 38.7784 19.6555 38.7546 19.7017 38.7546C19.8456 38.7546 20.4752 38.293 20.86 37.9054L21.2275 37.5351L21.0575 37.4712C20.9639 37.4362 20.8223 37.4074 20.7427 37.4074C20.663 37.4074 20.4388 37.3247 20.2442 37.2237C19.8993 37.0446 19.6549 36.9891 19.6549 37.0899C19.6549 37.2251 19.1597 37.4074 18.7928 37.4074C18.2417 37.4074 17.4337 36.9714 17.06 36.4722C16.7636 36.0764 16.6695 36.0299 16.4853 36.1885Z" fill="white"/>
<path fill-rule="evenodd" clip-rule="evenodd" d="M21.0816 0.0644376C20.9622 0.0971984 20.7529 0.152616 20.6164 0.187674C20.1406 0.310144 19.17 0.761907 18.583 1.13422C18.3517 1.28103 18.1353 1.40105 18.1023 1.40105C18.0691 1.40105 18.0421 1.42401 18.0421 1.45187C18.0421 1.47989 17.9654 1.54189 17.8715 1.58965C17.7777 1.63742 17.687 1.69146 17.6699 1.70983C17.6529 1.7282 17.3722 1.92446 17.0461 2.14582C16.5388 2.49012 16.2837 2.63555 15.5462 3.00097C15.2887 3.12865 14.3626 3.04629 13.9954 2.86319C13.8317 2.78144 13.2286 2.79813 13.1543 2.88631C12.7365 3.38323 13.3339 4.24083 14.4907 4.80512C15.381 5.23943 16.6486 5.42604 17.558 5.25657C18.1356 5.14895 19.3201 3.92318 19.9668 2.76353C20.3267 2.11811 20.9394 2.86488 20.5936 3.52744C20.5624 3.5873 20.4711 3.77391 20.3906 3.94231C20.3101 4.11071 20.1439 4.41382 20.0212 4.6159C19.2843 5.83019 18.3137 7.82876 18.0286 8.71866C17.6934 9.76548 17.691 9.74052 18.1591 10.1415C19.1066 10.9534 19.7467 11.7513 20.0232 12.4652C20.0991 12.6611 20.1868 12.8693 20.2182 12.9278C20.2495 12.9863 20.2752 13.0841 20.2752 13.1452C20.2752 13.5668 25.3721 13.7902 27.7809 13.474C29.0121 13.3124 29.4394 13.2485 29.8899 13.1587C30.0776 13.1213 30.3567 13.0657 30.5102 13.0354C30.6638 13.005 30.922 12.9512 31.084 12.916C31.9881 12.7196 32.2552 12.6565 32.6348 12.55C32.7627 12.514 32.9625 12.4606 33.0786 12.4312C33.5162 12.3204 34.699 11.9194 34.9291 11.8038C34.9884 11.7741 35.0794 11.7498 35.1315 11.7498C35.1836 11.7498 35.2746 11.7245 35.3339 11.6938C35.3931 11.663 35.7348 11.4989 36.093 11.3291C37.1974 10.8056 37.6856 10.5159 38.5475 9.87264C39.0962 9.46313 39.3165 9.49818 39.1646 9.97061C39.0784 10.239 37.5888 11.5385 37.2095 11.6765C37.1584 11.695 37.1025 11.7261 37.0855 11.7454C37.0315 11.8063 36.6993 11.9909 36.1643 12.2573L35.6464 12.5152L35.6916 12.8214C35.7166 12.9898 35.7544 13.7752 35.7755 14.5666L35.8138 16.0056L36.0333 15.7913C36.2205 15.6084 36.4785 15.3102 36.8994 14.7904C36.9506 14.7272 37.0273 14.6392 37.07 14.5948C37.1126 14.5504 37.1475 14.4941 37.1475 14.4694C37.1475 14.4448 37.2536 14.2843 37.3832 14.1129C38.347 12.8384 39.9471 10.1133 40.2526 9.22584C40.637 8.10891 40.3222 8.04859 37.9229 8.77867C37.7864 8.82016 37.5491 8.88874 37.3956 8.93115C37.2421 8.97355 37.0607 9.02897 36.9924 9.05438C36.6247 9.19139 36.0294 9.36163 35.9179 9.36163C35.8477 9.36163 35.7748 9.38612 35.756 9.41613C35.7372 9.44598 35.631 9.48395 35.5198 9.50048C35.4086 9.51686 35.1641 9.57243 34.9764 9.62402C34.5542 9.74006 33.8503 9.81125 33.7667 9.74664C33.6905 9.68755 33.2396 9.01167 33.2396 8.9564C33.2396 8.91568 32.9921 8.68804 32.9479 8.68804C32.9344 8.68804 32.8479 8.72585 32.7557 8.77193C31.5569 9.37165 27.7115 10.3334 25.6419 9.9749C28.0927 9.59061 30.1305 9.21951 32.4261 8.00083C32.4991 7.98169 32.4991 7.96516 32.4261 7.88923C32.3788 7.84024 32.2224 7.64857 32.0787 7.46334C31.9349 7.2781 31.7442 7.04388 31.655 6.94284C31.5657 6.8418 31.3345 6.58017 31.1411 6.36156C30.2344 5.33664 28.4949 3.71651 27.3476 2.8286C27.296 2.78849 27.1001 2.6354 26.9125 2.48813C26.7248 2.34086 26.3759 2.08474 26.1371 1.91895C25.8983 1.753 25.6488 1.56868 25.5827 1.50913C25.5165 1.44973 25.4258 1.40105 25.3811 1.40105C25.3363 1.40105 25.2997 1.37349 25.2997 1.33981C25.2997 1.30613 25.2721 1.27858 25.2383 1.27858C25.2045 1.27858 24.9843 1.15672 24.7489 1.00777C24.1589 0.634537 23.4622 0.279526 23.1286 0.182162C22.9751 0.137461 22.7685 0.0765314 22.6696 0.0466792C22.4353 -0.0237413 21.3604 -0.0118002 21.0816 0.0644376Z" fill="white"/>
<path fill-rule="evenodd" clip-rule="evenodd" d="M9.63695 14.213C9.5346 14.247 9.40233 14.2992 9.34309 14.3289C9.28385 14.3586 9.20677 14.3829 9.17188 14.3829C9.11001 14.3829 8.80761 14.5083 8.24127 14.7687C7.78426 14.9789 6.64554 15.7258 6.54024 15.8845C6.32081 16.2151 6.51558 16.5267 7.31081 17.1183C7.78224 17.4689 9.02084 17.9277 8.91306 17.7116C8.89864 17.6827 8.85677 17.5901 8.82001 17.5059C8.78326 17.4217 8.69704 17.2288 8.6285 17.0773C8.02292 15.7396 8.43636 15.5914 9.30137 16.8363C9.6841 17.3871 10.1064 17.8736 10.2013 17.8729C10.232 17.8727 10.3086 17.7181 10.3716 17.5293C10.5848 16.8882 11.1824 16.0641 11.3795 16.1388C11.4872 16.1795 11.4382 16.608 11.2705 17.0923C11.2035 17.2858 11.1576 17.5284 11.1683 17.6311L11.1877 17.8182L11.5754 17.5855C12.4838 17.0404 12.5795 16.8277 12.1337 16.3456C11.6646 15.8386 11.253 15.2811 11.0392 14.8631C10.711 14.222 10.2509 14.0086 9.63695 14.213ZM12.3353 18.3119C12.3353 18.3589 12.3954 18.4379 12.4691 18.4875C12.8047 18.7132 13.0373 18.9569 13.1767 19.2283C13.4435 19.748 13.3225 19.9004 12.8811 19.6005C12.3624 19.2482 11.7596 19.0368 11.2742 19.0368H10.9353L10.9374 19.3945C10.9416 20.0862 10.4613 20.6237 10.149 20.2768C10.0398 20.1555 9.91702 19.7577 9.9164 19.5236C9.91594 19.3015 9.77838 19.0378 9.6627 19.0372C9.14459 19.0348 8.11845 19.6015 7.27375 20.3567C6.38377 21.1523 6.4106 21.1371 6.2349 20.9456C5.97607 20.6633 6.45417 19.8592 7.43286 18.9301C7.89995 18.4866 7.9001 18.4864 7.70223 18.4861C7.59336 18.4858 7.48698 18.5132 7.46589 18.5469C7.4448 18.5806 7.37688 18.6081 7.31485 18.6081C7.20536 18.6081 6.57792 18.874 5.88411 19.2145C4.43477 19.9258 2.7598 21.3124 1.77165 22.619C1.38241 23.1336 0.611527 24.5441 0.611527 24.7415C0.611527 24.79 0.588266 24.8558 0.560042 24.8878C0.508712 24.9457 0.254232 25.7909 0.124899 26.333C-0.118106 27.3518 0.0054903 29.2344 0.391475 30.3959C1.40397 33.4424 4.24713 35.557 7.683 35.8186C8.42829 35.8754 9.81328 35.8399 10.1332 35.7557C10.2355 35.7289 10.4868 35.6723 10.6915 35.6298C11.4552 35.4719 12.542 35.046 13.0598 34.7017C13.2025 34.6069 13.3347 34.5293 13.3538 34.5293C13.6958 34.5293 15.1556 32.9837 15.5516 32.2024L15.7533 31.8043L15.1978 31.6757C13.5052 31.2841 12.7366 30.4143 12.7459 28.9009C12.7486 28.4763 12.7822 28.0328 12.8208 27.9153C13.4346 26.0438 13.913 25.2 15.0378 24.006C15.5269 23.4867 16.152 22.9696 16.8967 22.4679L17.4193 22.116C17.8934 21.7683 18.1304 21.5122 18.0111 21.1174L17.7319 20.8552C16.6086 19.8002 14.2018 18.4979 13.3557 18.4872C13.2857 18.4864 13.202 18.4609 13.1696 18.4307C13.1372 18.4005 12.999 18.3623 12.8625 18.3457C12.7261 18.3294 12.5516 18.2957 12.4748 18.2712C12.3751 18.2392 12.3353 18.2508 12.3353 18.3119ZM1.64837 27.9312C1.68109 27.9733 1.78437 28.242 1.87788 28.5282C1.97154 28.8145 2.18741 29.3294 2.35784 29.6723C2.67962 30.3198 2.72025 30.5712 2.523 30.6931C2.03606 30.994 1.21524 29.1201 1.42056 28.1757C1.49143 27.8488 1.54214 27.7945 1.64837 27.9312ZM4.52642 32.7466C5.21357 33.0531 5.64793 33.1374 6.57684 33.1448C7.54265 33.1524 7.57274 33.1642 7.35361 33.4477C6.898 34.0374 5.83992 34.0951 4.77454 33.5886C3.76407 33.1082 3.52603 32.3003 4.52642 32.7466Z" fill="white"/>
<path fill-rule="evenodd" clip-rule="evenodd" d="M24.0648 24.7776C24.1965 25.0386 24.3047 25.282 24.3056 25.3183C24.3064 25.3547 24.3795 25.4227 24.4677 25.4694C25.2806 25.8988 25.5545 26.986 25.0762 27.8853C25.0046 28.02 24.9255 28.268 24.9004 28.4364C24.8751 28.6048 24.7909 28.8666 24.7129 29.0181C24.635 29.1697 24.5398 29.4383 24.5012 29.6152C24.2684 30.6846 24.2338 30.7604 23.7823 31.192C23.0883 31.8555 20.7187 32.0379 19.5606 31.5171C19.4308 31.4587 19.3683 31.4631 19.233 31.5402C18.9975 31.6744 17.9285 31.8962 17.5175 31.8962C17.3288 31.8962 17.3116 31.9211 16.8443 32.8713L16.365 33.8465L16.9447 34.7237C17.5459 35.6332 17.8805 35.9888 18.3727 36.2411C18.5714 36.3429 18.7407 36.2774 18.7777 36.0842C18.8268 35.8278 19.0233 35.7471 19.2835 35.8765C19.3513 35.9101 19.4623 35.9653 19.5301 35.9989C19.5978 36.0326 19.6959 36.0602 19.748 36.0602C19.8001 36.0602 19.8911 36.0868 19.9503 36.1194C20.1063 36.2053 20.5866 36.3564 21.3228 36.551L21.9673 36.7214L22.6254 36.3918C23.2603 36.0738 23.8744 35.656 24.5232 35.1002C24.9331 34.7491 25.0821 34.7448 25.0269 35.0855C24.9846 35.3474 24.7278 35.901 24.6175 35.9682C24.4762 36.0545 24.6406 36.1284 24.8873 36.0896C25.6804 35.9651 27.5336 35.1645 27.7809 34.8398C27.798 34.8173 27.9096 34.7337 28.029 34.6537C28.9178 34.0593 29.971 32.6824 30.1719 31.8525C30.407 30.8815 30.2551 27.1886 29.9061 25.3826C29.7691 24.6749 29.8222 24.6958 28.3886 24.7863C26.9007 24.8805 25.8989 24.8171 24.8965 24.5659C24.6918 24.5144 24.4333 24.4589 24.3221 24.4422C24.2109 24.4256 24.1047 24.3874 24.0859 24.3575C24.0671 24.3275 24.0009 24.303 23.9387 24.303C23.8401 24.303 23.8562 24.3639 24.0648 24.7776Z" fill="white"/>
</g>
<defs>
<linearGradient id="paint0_linear_11_39" x1="38.3199" y1="19.6902" x2="49.0974" y2="31.2781" gradientUnits="userSpaceOnUse">
<stop stop-color="#24E191"/>
<stop offset="0.932292" stop-color="#65E3FF"/>
<stop offset="1" stop-color="#24E191" stop-opacity="0"/>
</linearGradient>
<clipPath id="clip0_11_39">
<rect width="48" height="42" fill="white"/>
</clipPath>
</defs>
</svg>
