<svg width="32" height="32" viewBox="0 0 32 32" fill="none" xmlns="http://www.w3.org/2000/svg">
<circle cx="16" cy="16" r="15.5" stroke="#393F4B"/>
<path d="M15.3738 8.12455C15.0731 8.24911 14.8036 8.51866 14.2645 9.05777L14.2645 9.05778C13.7254 9.59688 13.4559 9.86641 13.3313 10.1671C13.1652 10.5681 13.1652 11.0186 13.3313 11.4195C13.4559 11.7202 13.7254 11.9898 14.2645 12.5289L14.2647 12.5291C14.8037 13.0681 15.0732 13.3375 15.3738 13.4621C15.7747 13.6282 16.2252 13.6282 16.6262 13.4621C16.9269 13.3375 17.1964 13.068 17.7355 12.5289C18.2746 11.9898 18.5441 11.7202 18.6687 11.4195C18.8348 11.0186 18.8348 10.5681 18.6687 10.1671C18.5442 9.86646 18.2747 9.59696 17.7357 9.058L17.7355 9.05777C17.1964 8.51866 16.9269 8.24911 16.6262 8.12455C16.2252 7.95848 15.7747 7.95848 15.3738 8.12455Z" fill="white"/>
<path d="M10.1671 13.3312C9.86637 13.4558 9.59682 13.7253 9.05772 14.2645C8.51863 14.8036 8.2491 15.0731 8.12455 15.3738C7.95848 15.7747 7.95848 16.2252 8.12455 16.6262C8.2491 16.9269 8.51865 17.1964 9.05775 17.7355L9.05798 17.7358C9.59692 18.2747 9.86641 18.5442 10.1671 18.6688C10.568 18.8348 11.0185 18.8348 11.4194 18.6688C11.7201 18.5442 11.9897 18.2747 12.5288 17.7355C13.0678 17.1964 13.3374 16.9269 13.462 16.6262C13.628 16.2252 13.628 15.7747 13.462 15.3738C13.3374 15.0731 13.0679 14.8036 12.529 14.2647L12.5288 14.2645C11.9897 13.7253 11.7201 13.4558 11.4194 13.3312C11.0185 13.1652 10.568 13.1652 10.1671 13.3312Z" fill="white"/>
<path d="M20.5806 13.3312C20.2799 13.4558 20.0103 13.7253 19.4712 14.2645L19.4712 14.2645C18.9321 14.8036 18.6626 15.0731 18.538 15.3738C18.372 15.7747 18.372 16.2252 18.538 16.6262C18.6626 16.9269 18.9321 17.1964 19.4712 17.7355L19.4715 17.7358C20.0104 18.2747 20.2799 18.5442 20.5806 18.6688C20.9815 18.8348 21.432 18.8348 21.8329 18.6688C22.1336 18.5442 22.4032 18.2747 22.9423 17.7355C23.4813 17.1964 23.7509 16.9269 23.8754 16.6262C24.0415 16.2252 24.0415 15.7747 23.8754 15.3738C23.7509 15.0731 23.4814 14.8036 22.9425 14.2647L22.9423 14.2645C22.4032 13.7253 22.1336 13.4558 21.8329 13.3312C21.432 13.1652 20.9815 13.1652 20.5806 13.3312Z" fill="white"/>
<path d="M15.3738 18.5379C15.0731 18.6625 14.8036 18.932 14.2645 19.4711L14.2645 19.4711C13.7254 20.0102 13.4559 20.2798 13.3313 20.5805C13.1652 20.9814 13.1652 21.4319 13.3313 21.8329C13.4559 22.1336 13.7254 22.4031 14.2645 22.9422L14.2647 22.9425C14.8037 23.4814 15.0732 23.7509 15.3738 23.8754C15.7747 24.0415 16.2252 24.0415 16.6262 23.8754C16.9269 23.7509 17.1964 23.4813 17.7355 22.9422C18.2746 22.4031 18.5441 22.1336 18.6687 21.8329C18.8348 21.4319 18.8348 20.9814 18.6687 20.5805C18.5442 20.2798 18.2747 20.0103 17.7357 19.4714L17.7355 19.4711C17.1964 18.932 16.9269 18.6625 16.6262 18.5379C16.2252 18.3718 15.7747 18.3718 15.3738 18.5379Z" fill="white"/>
</svg>
